<mxfile host="app.diagrams.net" modified="2023-05-01T20:42:53.644Z" agent="Mozilla/5.0 (Windows NT 10.0; Win64; x64) AppleWebKit/537.36 (KHTML, like Gecko) Chrome/112.0.0.0 Safari/537.36" etag="2ZN-LyQp5mz1O5eJCESS" version="21.2.3" type="github">
  <diagram name="Page-1" id="2cc2dc42-3aac-f2a9-1cec-7a8b7cbee084">
    <mxGraphModel dx="1221" dy="743" grid="1" gridSize="10" guides="1" tooltips="1" connect="1" arrows="1" fold="1" page="1" pageScale="1" pageWidth="1100" pageHeight="850" background="none" math="0" shadow="0">
      <root>
        <mxCell id="0" />
        <mxCell id="1" parent="0" />
        <mxCell id="7026571954dc6520-1" value="" style="strokeWidth=1;shadow=0;dashed=0;align=center;html=1;shape=mxgraph.mockup.containers.browserWindow;rSize=0;strokeColor=#666666;mainText=,;recursiveResize=0;rounded=0;labelBackgroundColor=none;fontFamily=Verdana;fontSize=12" parent="1" vertex="1">
          <mxGeometry x="30" y="20" width="1050" height="820" as="geometry" />
        </mxCell>
        <mxCell id="7026571954dc6520-2" value="Joined event" style="strokeWidth=1;shadow=0;dashed=0;align=center;html=1;shape=mxgraph.mockup.containers.anchor;fontSize=17;fontColor=#666666;align=left;" parent="7026571954dc6520-1" vertex="1">
          <mxGeometry x="60" y="12" width="110" height="26" as="geometry" />
        </mxCell>
        <mxCell id="7026571954dc6520-3" value="https://www.vistasmartcity.com/organizations/?orgid=1" style="strokeWidth=1;shadow=0;dashed=0;align=center;html=1;shape=mxgraph.mockup.containers.anchor;rSize=0;fontSize=17;fontColor=#666666;align=left;" parent="7026571954dc6520-1" vertex="1">
          <mxGeometry x="130" y="60" width="250" height="26" as="geometry" />
        </mxCell>
        <mxCell id="4rItziBb_c25DRYMOsrU-19" value="Organization long description" style="rounded=0;whiteSpace=wrap;html=1;" parent="7026571954dc6520-1" vertex="1">
          <mxGeometry x="530" y="180" width="237.75" height="170" as="geometry" />
        </mxCell>
        <mxCell id="4rItziBb_c25DRYMOsrU-20" value="" style="verticalLabelPosition=bottom;shadow=0;dashed=0;align=center;html=1;verticalAlign=top;strokeWidth=1;shape=mxgraph.mockup.forms.horSlider;strokeColor=#999999;sliderStyle=basic;sliderPos=69.032;handleStyle=circle;fillColor2=#ddeeff;direction=north;" parent="7026571954dc6520-1" vertex="1">
          <mxGeometry x="727.75" y="180" width="30" height="170" as="geometry" />
        </mxCell>
        <object placeholders="1" c4Name="Organizer name" c4Type="Organization" c4Description="Description of organization objective." label="&lt;font style=&quot;font-size: 16px&quot;&gt;&lt;b&gt;%c4Name%&lt;/b&gt;&lt;/font&gt;&lt;div&gt;[%c4Type%]&lt;/div&gt;&lt;br&gt;&lt;div&gt;&lt;font style=&quot;font-size: 11px&quot;&gt;&lt;font color=&quot;#cccccc&quot;&gt;%c4Description%&lt;/font&gt;&lt;/div&gt;" id="4rItziBb_c25DRYMOsrU-23">
          <mxCell style="html=1;fontSize=11;dashed=0;whiteSpace=wrap;fillColor=#6C6477;strokeColor=#4D4D4D;fontColor=#ffffff;shape=mxgraph.c4.person2;align=center;metaEdit=1;points=[[0.5,0,0],[1,0.5,0],[1,0.75,0],[0.75,1,0],[0.5,1,0],[0.25,1,0],[0,0.75,0],[0,0.5,0]];resizable=0;" parent="7026571954dc6520-1" vertex="1">
            <mxGeometry x="101.37" y="220" width="200" height="180" as="geometry" />
          </mxCell>
        </object>
        <mxCell id="4rItziBb_c25DRYMOsrU-26" value="" style="rounded=0;whiteSpace=wrap;html=1;" parent="7026571954dc6520-1" vertex="1">
          <mxGeometry x="793" y="180" width="200" height="204" as="geometry" />
        </mxCell>
        <mxCell id="4rItziBb_c25DRYMOsrU-25" value="" style="verticalLabelPosition=bottom;shadow=0;dashed=0;align=center;html=1;verticalAlign=top;strokeWidth=1;shape=mxgraph.mockup.misc.map;" parent="7026571954dc6520-1" vertex="1">
          <mxGeometry x="810" y="184" width="170" height="170" as="geometry" />
        </mxCell>
        <mxCell id="4rItziBb_c25DRYMOsrU-27" value="Location 2" style="text;html=1;align=center;verticalAlign=middle;resizable=0;points=[];autosize=1;strokeColor=none;fillColor=none;" parent="7026571954dc6520-1" vertex="1">
          <mxGeometry x="805" y="354" width="80" height="30" as="geometry" />
        </mxCell>
        <mxCell id="4rItziBb_c25DRYMOsrU-28" value="" style="html=1;verticalLabelPosition=bottom;align=center;labelBackgroundColor=#ffffff;verticalAlign=top;strokeWidth=2;strokeColor=#0080F0;shadow=0;dashed=0;shape=mxgraph.ios7.icons.location;" parent="7026571954dc6520-1" vertex="1">
          <mxGeometry x="881" y="234" width="24" height="30" as="geometry" />
        </mxCell>
        <mxCell id="4rItziBb_c25DRYMOsrU-29" value="&lt;font style=&quot;font-size: 23px;&quot;&gt;Organization&lt;/font&gt;" style="text;html=1;align=center;verticalAlign=middle;resizable=0;points=[];autosize=1;strokeColor=none;fillColor=none;" parent="7026571954dc6520-1" vertex="1">
          <mxGeometry x="121.37" y="170" width="150" height="40" as="geometry" />
        </mxCell>
        <mxCell id="4rItziBb_c25DRYMOsrU-33" value="Organization website" style="rounded=1;html=1;shadow=0;dashed=0;whiteSpace=wrap;fontSize=10;fillColor=#666666;align=center;strokeColor=#4D4D4D;fontColor=#ffffff;" parent="7026571954dc6520-1" vertex="1">
          <mxGeometry x="530" y="360" width="235.5" height="30" as="geometry" />
        </mxCell>
        <mxCell id="4rItziBb_c25DRYMOsrU-34" value="Concacts" style="html=1;strokeColor=none;fillColor=#0079D6;labelPosition=center;verticalLabelPosition=middle;verticalAlign=top;align=center;fontSize=12;outlineConnect=0;spacingTop=-6;fontColor=#FFFFFF;sketch=0;shape=mxgraph.sitemap.chat;" parent="7026571954dc6520-1" vertex="1">
          <mxGeometry x="325" y="184" width="170" height="90" as="geometry" />
        </mxCell>
        <mxCell id="n46MG3Q2pXrI5LUOVnrd-4" value="" style="group" vertex="1" connectable="0" parent="7026571954dc6520-1">
          <mxGeometry x="793" y="156" width="197" height="24" as="geometry" />
        </mxCell>
        <mxCell id="n46MG3Q2pXrI5LUOVnrd-1" value="Tab 1" style="strokeWidth=1;shadow=0;dashed=0;align=center;html=1;shape=mxgraph.mockup.forms.uRect;fontSize=17;fontColor=#666666;align=left;spacingLeft=5;strokeColor=#666666;" vertex="1" parent="n46MG3Q2pXrI5LUOVnrd-4">
          <mxGeometry width="62.68181818181819" height="24" as="geometry" />
        </mxCell>
        <mxCell id="n46MG3Q2pXrI5LUOVnrd-2" value="Tab 2" style="strokeWidth=1;shadow=0;dashed=0;align=center;html=1;shape=mxgraph.mockup.forms.uRect;fontSize=17;fontColor=#ffffff;align=left;spacingLeft=5;strokeColor=#008cff;fillColor=#008cff;" vertex="1" parent="n46MG3Q2pXrI5LUOVnrd-4">
          <mxGeometry x="67.15909090909092" width="62.68181818181819" height="24" as="geometry" />
        </mxCell>
        <mxCell id="n46MG3Q2pXrI5LUOVnrd-3" value="Tab 3" style="strokeWidth=1;shadow=0;dashed=0;align=center;html=1;shape=mxgraph.mockup.forms.uRect;fontSize=17;fontColor=#666666;align=left;spacingLeft=5;strokeColor=#666666;" vertex="1" parent="n46MG3Q2pXrI5LUOVnrd-4">
          <mxGeometry x="134.31818181818184" width="62.68181818181819" height="24" as="geometry" />
        </mxCell>
        <mxCell id="n46MG3Q2pXrI5LUOVnrd-5" value="Events organized" style="text;html=1;points=[];align=left;verticalAlign=top;spacingTop=-4;fontSize=12;fontFamily=Verdana;whiteSpace=wrap;" vertex="1" parent="7026571954dc6520-1">
          <mxGeometry x="40" y="450" width="240" height="40" as="geometry" />
        </mxCell>
        <mxCell id="n46MG3Q2pXrI5LUOVnrd-6" value="" style="rounded=1;whiteSpace=wrap;html=1;" vertex="1" parent="7026571954dc6520-1">
          <mxGeometry x="58" y="484" width="130" height="80" as="geometry" />
        </mxCell>
        <mxCell id="n46MG3Q2pXrI5LUOVnrd-7" value="" style="aspect=fixed;html=1;points=[];align=center;image;fontSize=12;image=img/lib/azure2/general/Image.svg;" vertex="1" parent="7026571954dc6520-1">
          <mxGeometry x="68" y="494" width="46.55" height="32" as="geometry" />
        </mxCell>
        <mxCell id="n46MG3Q2pXrI5LUOVnrd-8" value="Event name" style="text;html=1;align=center;verticalAlign=middle;resizable=0;points=[];autosize=1;strokeColor=none;fillColor=none;" vertex="1" parent="7026571954dc6520-1">
          <mxGeometry x="108" y="484" width="90" height="30" as="geometry" />
        </mxCell>
        <mxCell id="n46MG3Q2pXrI5LUOVnrd-9" value="Location" style="text;html=1;align=center;verticalAlign=middle;resizable=0;points=[];autosize=1;strokeColor=none;fillColor=none;" vertex="1" parent="7026571954dc6520-1">
          <mxGeometry x="108" y="494" width="70" height="30" as="geometry" />
        </mxCell>
        <mxCell id="n46MG3Q2pXrI5LUOVnrd-10" value="Date" style="text;html=1;align=center;verticalAlign=middle;resizable=0;points=[];autosize=1;strokeColor=none;fillColor=none;" vertex="1" parent="7026571954dc6520-1">
          <mxGeometry x="108" y="504" width="50" height="30" as="geometry" />
        </mxCell>
        <mxCell id="n46MG3Q2pXrI5LUOVnrd-11" value="" style="rounded=0;whiteSpace=wrap;html=1;" vertex="1" parent="7026571954dc6520-1">
          <mxGeometry x="68" y="529" width="110" height="30" as="geometry" />
        </mxCell>
        <mxCell id="n46MG3Q2pXrI5LUOVnrd-12" value="Event short&amp;nbsp;&lt;br&gt;description" style="text;html=1;align=center;verticalAlign=middle;resizable=0;points=[];autosize=1;strokeColor=none;fillColor=none;" vertex="1" parent="7026571954dc6520-1">
          <mxGeometry x="78" y="524" width="90" height="40" as="geometry" />
        </mxCell>
        <mxCell id="n46MG3Q2pXrI5LUOVnrd-13" value="" style="rounded=1;whiteSpace=wrap;html=1;" vertex="1" parent="7026571954dc6520-1">
          <mxGeometry x="223" y="484" width="130" height="80" as="geometry" />
        </mxCell>
        <mxCell id="n46MG3Q2pXrI5LUOVnrd-14" value="" style="aspect=fixed;html=1;points=[];align=center;image;fontSize=12;image=img/lib/azure2/general/Image.svg;" vertex="1" parent="7026571954dc6520-1">
          <mxGeometry x="233" y="494" width="46.55" height="32" as="geometry" />
        </mxCell>
        <mxCell id="n46MG3Q2pXrI5LUOVnrd-15" value="Event name" style="text;html=1;align=center;verticalAlign=middle;resizable=0;points=[];autosize=1;strokeColor=none;fillColor=none;" vertex="1" parent="7026571954dc6520-1">
          <mxGeometry x="273" y="484" width="90" height="30" as="geometry" />
        </mxCell>
        <mxCell id="n46MG3Q2pXrI5LUOVnrd-16" value="Location" style="text;html=1;align=center;verticalAlign=middle;resizable=0;points=[];autosize=1;strokeColor=none;fillColor=none;" vertex="1" parent="7026571954dc6520-1">
          <mxGeometry x="273" y="494" width="70" height="30" as="geometry" />
        </mxCell>
        <mxCell id="n46MG3Q2pXrI5LUOVnrd-17" value="Date" style="text;html=1;align=center;verticalAlign=middle;resizable=0;points=[];autosize=1;strokeColor=none;fillColor=none;" vertex="1" parent="7026571954dc6520-1">
          <mxGeometry x="273" y="504" width="50" height="30" as="geometry" />
        </mxCell>
        <mxCell id="n46MG3Q2pXrI5LUOVnrd-18" value="" style="rounded=0;whiteSpace=wrap;html=1;" vertex="1" parent="7026571954dc6520-1">
          <mxGeometry x="233" y="529" width="110" height="30" as="geometry" />
        </mxCell>
        <mxCell id="n46MG3Q2pXrI5LUOVnrd-19" value="Event short&amp;nbsp;&lt;br&gt;description" style="text;html=1;align=center;verticalAlign=middle;resizable=0;points=[];autosize=1;strokeColor=none;fillColor=none;" vertex="1" parent="7026571954dc6520-1">
          <mxGeometry x="243" y="524" width="90" height="40" as="geometry" />
        </mxCell>
        <mxCell id="n46MG3Q2pXrI5LUOVnrd-20" value="" style="rounded=1;whiteSpace=wrap;html=1;" vertex="1" parent="7026571954dc6520-1">
          <mxGeometry x="396" y="484" width="130" height="80" as="geometry" />
        </mxCell>
        <mxCell id="n46MG3Q2pXrI5LUOVnrd-21" value="" style="aspect=fixed;html=1;points=[];align=center;image;fontSize=12;image=img/lib/azure2/general/Image.svg;" vertex="1" parent="7026571954dc6520-1">
          <mxGeometry x="406" y="494" width="46.55" height="32" as="geometry" />
        </mxCell>
        <mxCell id="n46MG3Q2pXrI5LUOVnrd-22" value="Event name" style="text;html=1;align=center;verticalAlign=middle;resizable=0;points=[];autosize=1;strokeColor=none;fillColor=none;" vertex="1" parent="7026571954dc6520-1">
          <mxGeometry x="446" y="484" width="90" height="30" as="geometry" />
        </mxCell>
        <mxCell id="n46MG3Q2pXrI5LUOVnrd-23" value="Location" style="text;html=1;align=center;verticalAlign=middle;resizable=0;points=[];autosize=1;strokeColor=none;fillColor=none;" vertex="1" parent="7026571954dc6520-1">
          <mxGeometry x="446" y="494" width="70" height="30" as="geometry" />
        </mxCell>
        <mxCell id="n46MG3Q2pXrI5LUOVnrd-24" value="Date" style="text;html=1;align=center;verticalAlign=middle;resizable=0;points=[];autosize=1;strokeColor=none;fillColor=none;" vertex="1" parent="7026571954dc6520-1">
          <mxGeometry x="446" y="504" width="50" height="30" as="geometry" />
        </mxCell>
        <mxCell id="n46MG3Q2pXrI5LUOVnrd-25" value="" style="rounded=0;whiteSpace=wrap;html=1;" vertex="1" parent="7026571954dc6520-1">
          <mxGeometry x="406" y="529" width="110" height="30" as="geometry" />
        </mxCell>
        <mxCell id="n46MG3Q2pXrI5LUOVnrd-26" value="Event short&amp;nbsp;&lt;br&gt;description" style="text;html=1;align=center;verticalAlign=middle;resizable=0;points=[];autosize=1;strokeColor=none;fillColor=none;" vertex="1" parent="7026571954dc6520-1">
          <mxGeometry x="416" y="524" width="90" height="40" as="geometry" />
        </mxCell>
        <mxCell id="n46MG3Q2pXrI5LUOVnrd-27" value="" style="rounded=1;whiteSpace=wrap;html=1;" vertex="1" parent="7026571954dc6520-1">
          <mxGeometry x="561" y="484" width="130" height="80" as="geometry" />
        </mxCell>
        <mxCell id="n46MG3Q2pXrI5LUOVnrd-28" value="" style="aspect=fixed;html=1;points=[];align=center;image;fontSize=12;image=img/lib/azure2/general/Image.svg;" vertex="1" parent="7026571954dc6520-1">
          <mxGeometry x="571" y="494" width="46.55" height="32" as="geometry" />
        </mxCell>
        <mxCell id="n46MG3Q2pXrI5LUOVnrd-29" value="Event name" style="text;html=1;align=center;verticalAlign=middle;resizable=0;points=[];autosize=1;strokeColor=none;fillColor=none;" vertex="1" parent="7026571954dc6520-1">
          <mxGeometry x="611" y="484" width="90" height="30" as="geometry" />
        </mxCell>
        <mxCell id="n46MG3Q2pXrI5LUOVnrd-30" value="Location" style="text;html=1;align=center;verticalAlign=middle;resizable=0;points=[];autosize=1;strokeColor=none;fillColor=none;" vertex="1" parent="7026571954dc6520-1">
          <mxGeometry x="611" y="494" width="70" height="30" as="geometry" />
        </mxCell>
        <mxCell id="n46MG3Q2pXrI5LUOVnrd-31" value="Date" style="text;html=1;align=center;verticalAlign=middle;resizable=0;points=[];autosize=1;strokeColor=none;fillColor=none;" vertex="1" parent="7026571954dc6520-1">
          <mxGeometry x="611" y="504" width="50" height="30" as="geometry" />
        </mxCell>
        <mxCell id="n46MG3Q2pXrI5LUOVnrd-32" value="" style="rounded=0;whiteSpace=wrap;html=1;" vertex="1" parent="7026571954dc6520-1">
          <mxGeometry x="571" y="529" width="110" height="30" as="geometry" />
        </mxCell>
        <mxCell id="n46MG3Q2pXrI5LUOVnrd-33" value="Event short&amp;nbsp;&lt;br&gt;description" style="text;html=1;align=center;verticalAlign=middle;resizable=0;points=[];autosize=1;strokeColor=none;fillColor=none;" vertex="1" parent="7026571954dc6520-1">
          <mxGeometry x="581" y="524" width="90" height="40" as="geometry" />
        </mxCell>
        <mxCell id="n46MG3Q2pXrI5LUOVnrd-63" value="Event history" style="text;html=1;points=[];align=left;verticalAlign=top;spacingTop=-4;fontSize=12;fontFamily=Verdana;whiteSpace=wrap;" vertex="1" parent="7026571954dc6520-1">
          <mxGeometry x="40" y="590" width="240" height="40" as="geometry" />
        </mxCell>
        <mxCell id="n46MG3Q2pXrI5LUOVnrd-64" value="" style="rounded=1;whiteSpace=wrap;html=1;" vertex="1" parent="7026571954dc6520-1">
          <mxGeometry x="58" y="624" width="130" height="80" as="geometry" />
        </mxCell>
        <mxCell id="n46MG3Q2pXrI5LUOVnrd-65" value="" style="aspect=fixed;html=1;points=[];align=center;image;fontSize=12;image=img/lib/azure2/general/Image.svg;" vertex="1" parent="7026571954dc6520-1">
          <mxGeometry x="68" y="634" width="46.55" height="32" as="geometry" />
        </mxCell>
        <mxCell id="n46MG3Q2pXrI5LUOVnrd-66" value="Event name" style="text;html=1;align=center;verticalAlign=middle;resizable=0;points=[];autosize=1;strokeColor=none;fillColor=none;" vertex="1" parent="7026571954dc6520-1">
          <mxGeometry x="108" y="624" width="90" height="30" as="geometry" />
        </mxCell>
        <mxCell id="n46MG3Q2pXrI5LUOVnrd-67" value="Location" style="text;html=1;align=center;verticalAlign=middle;resizable=0;points=[];autosize=1;strokeColor=none;fillColor=none;" vertex="1" parent="7026571954dc6520-1">
          <mxGeometry x="108" y="634" width="70" height="30" as="geometry" />
        </mxCell>
        <mxCell id="n46MG3Q2pXrI5LUOVnrd-68" value="Date" style="text;html=1;align=center;verticalAlign=middle;resizable=0;points=[];autosize=1;strokeColor=none;fillColor=none;" vertex="1" parent="7026571954dc6520-1">
          <mxGeometry x="108" y="644" width="50" height="30" as="geometry" />
        </mxCell>
        <mxCell id="n46MG3Q2pXrI5LUOVnrd-69" value="" style="rounded=0;whiteSpace=wrap;html=1;" vertex="1" parent="7026571954dc6520-1">
          <mxGeometry x="68" y="669" width="110" height="30" as="geometry" />
        </mxCell>
        <mxCell id="n46MG3Q2pXrI5LUOVnrd-70" value="Event short&amp;nbsp;&lt;br&gt;description" style="text;html=1;align=center;verticalAlign=middle;resizable=0;points=[];autosize=1;strokeColor=none;fillColor=none;" vertex="1" parent="7026571954dc6520-1">
          <mxGeometry x="78" y="664" width="90" height="40" as="geometry" />
        </mxCell>
        <mxCell id="n46MG3Q2pXrI5LUOVnrd-71" value="" style="rounded=1;whiteSpace=wrap;html=1;" vertex="1" parent="7026571954dc6520-1">
          <mxGeometry x="223" y="624" width="130" height="80" as="geometry" />
        </mxCell>
        <mxCell id="n46MG3Q2pXrI5LUOVnrd-72" value="" style="aspect=fixed;html=1;points=[];align=center;image;fontSize=12;image=img/lib/azure2/general/Image.svg;" vertex="1" parent="7026571954dc6520-1">
          <mxGeometry x="233" y="634" width="46.55" height="32" as="geometry" />
        </mxCell>
        <mxCell id="n46MG3Q2pXrI5LUOVnrd-73" value="Event name" style="text;html=1;align=center;verticalAlign=middle;resizable=0;points=[];autosize=1;strokeColor=none;fillColor=none;" vertex="1" parent="7026571954dc6520-1">
          <mxGeometry x="273" y="624" width="90" height="30" as="geometry" />
        </mxCell>
        <mxCell id="n46MG3Q2pXrI5LUOVnrd-74" value="Location" style="text;html=1;align=center;verticalAlign=middle;resizable=0;points=[];autosize=1;strokeColor=none;fillColor=none;" vertex="1" parent="7026571954dc6520-1">
          <mxGeometry x="273" y="634" width="70" height="30" as="geometry" />
        </mxCell>
        <mxCell id="n46MG3Q2pXrI5LUOVnrd-75" value="Date" style="text;html=1;align=center;verticalAlign=middle;resizable=0;points=[];autosize=1;strokeColor=none;fillColor=none;" vertex="1" parent="7026571954dc6520-1">
          <mxGeometry x="273" y="644" width="50" height="30" as="geometry" />
        </mxCell>
        <mxCell id="n46MG3Q2pXrI5LUOVnrd-76" value="" style="rounded=0;whiteSpace=wrap;html=1;" vertex="1" parent="7026571954dc6520-1">
          <mxGeometry x="233" y="669" width="110" height="30" as="geometry" />
        </mxCell>
        <mxCell id="n46MG3Q2pXrI5LUOVnrd-77" value="Event short&amp;nbsp;&lt;br&gt;description" style="text;html=1;align=center;verticalAlign=middle;resizable=0;points=[];autosize=1;strokeColor=none;fillColor=none;" vertex="1" parent="7026571954dc6520-1">
          <mxGeometry x="243" y="664" width="90" height="40" as="geometry" />
        </mxCell>
        <mxCell id="n46MG3Q2pXrI5LUOVnrd-78" value="" style="rounded=1;whiteSpace=wrap;html=1;" vertex="1" parent="7026571954dc6520-1">
          <mxGeometry x="396" y="624" width="130" height="80" as="geometry" />
        </mxCell>
        <mxCell id="n46MG3Q2pXrI5LUOVnrd-79" value="" style="aspect=fixed;html=1;points=[];align=center;image;fontSize=12;image=img/lib/azure2/general/Image.svg;" vertex="1" parent="7026571954dc6520-1">
          <mxGeometry x="406" y="634" width="46.55" height="32" as="geometry" />
        </mxCell>
        <mxCell id="n46MG3Q2pXrI5LUOVnrd-80" value="Event name" style="text;html=1;align=center;verticalAlign=middle;resizable=0;points=[];autosize=1;strokeColor=none;fillColor=none;" vertex="1" parent="7026571954dc6520-1">
          <mxGeometry x="446" y="624" width="90" height="30" as="geometry" />
        </mxCell>
        <mxCell id="n46MG3Q2pXrI5LUOVnrd-81" value="Location" style="text;html=1;align=center;verticalAlign=middle;resizable=0;points=[];autosize=1;strokeColor=none;fillColor=none;" vertex="1" parent="7026571954dc6520-1">
          <mxGeometry x="446" y="634" width="70" height="30" as="geometry" />
        </mxCell>
        <mxCell id="n46MG3Q2pXrI5LUOVnrd-82" value="Date" style="text;html=1;align=center;verticalAlign=middle;resizable=0;points=[];autosize=1;strokeColor=none;fillColor=none;" vertex="1" parent="7026571954dc6520-1">
          <mxGeometry x="446" y="644" width="50" height="30" as="geometry" />
        </mxCell>
        <mxCell id="n46MG3Q2pXrI5LUOVnrd-83" value="" style="rounded=0;whiteSpace=wrap;html=1;" vertex="1" parent="7026571954dc6520-1">
          <mxGeometry x="406" y="669" width="110" height="30" as="geometry" />
        </mxCell>
        <mxCell id="n46MG3Q2pXrI5LUOVnrd-84" value="Event short&amp;nbsp;&lt;br&gt;description" style="text;html=1;align=center;verticalAlign=middle;resizable=0;points=[];autosize=1;strokeColor=none;fillColor=none;" vertex="1" parent="7026571954dc6520-1">
          <mxGeometry x="416" y="664" width="90" height="40" as="geometry" />
        </mxCell>
        <mxCell id="n46MG3Q2pXrI5LUOVnrd-85" value="" style="rounded=1;whiteSpace=wrap;html=1;" vertex="1" parent="7026571954dc6520-1">
          <mxGeometry x="561" y="624" width="130" height="80" as="geometry" />
        </mxCell>
        <mxCell id="n46MG3Q2pXrI5LUOVnrd-86" value="" style="aspect=fixed;html=1;points=[];align=center;image;fontSize=12;image=img/lib/azure2/general/Image.svg;" vertex="1" parent="7026571954dc6520-1">
          <mxGeometry x="571" y="634" width="46.55" height="32" as="geometry" />
        </mxCell>
        <mxCell id="n46MG3Q2pXrI5LUOVnrd-87" value="Event name" style="text;html=1;align=center;verticalAlign=middle;resizable=0;points=[];autosize=1;strokeColor=none;fillColor=none;" vertex="1" parent="7026571954dc6520-1">
          <mxGeometry x="611" y="624" width="90" height="30" as="geometry" />
        </mxCell>
        <mxCell id="n46MG3Q2pXrI5LUOVnrd-88" value="Location" style="text;html=1;align=center;verticalAlign=middle;resizable=0;points=[];autosize=1;strokeColor=none;fillColor=none;" vertex="1" parent="7026571954dc6520-1">
          <mxGeometry x="611" y="634" width="70" height="30" as="geometry" />
        </mxCell>
        <mxCell id="n46MG3Q2pXrI5LUOVnrd-89" value="Date" style="text;html=1;align=center;verticalAlign=middle;resizable=0;points=[];autosize=1;strokeColor=none;fillColor=none;" vertex="1" parent="7026571954dc6520-1">
          <mxGeometry x="611" y="644" width="50" height="30" as="geometry" />
        </mxCell>
        <mxCell id="n46MG3Q2pXrI5LUOVnrd-90" value="" style="rounded=0;whiteSpace=wrap;html=1;" vertex="1" parent="7026571954dc6520-1">
          <mxGeometry x="571" y="669" width="110" height="30" as="geometry" />
        </mxCell>
        <mxCell id="n46MG3Q2pXrI5LUOVnrd-91" value="Event short&amp;nbsp;&lt;br&gt;description" style="text;html=1;align=center;verticalAlign=middle;resizable=0;points=[];autosize=1;strokeColor=none;fillColor=none;" vertex="1" parent="7026571954dc6520-1">
          <mxGeometry x="581" y="664" width="90" height="40" as="geometry" />
        </mxCell>
        <mxCell id="rk1dpR8E0q6zi79prH13-4" value="" style="shape=image;html=1;verticalAlign=top;verticalLabelPosition=bottom;labelBackgroundColor=#ffffff;imageAspect=0;aspect=fixed;image=https://cdn4.iconfinder.com/data/icons/evil-icons-user-interface/64/menu-128.png" parent="1" vertex="1">
          <mxGeometry x="30" y="130" width="40" height="40" as="geometry" />
        </mxCell>
        <mxCell id="rk1dpR8E0q6zi79prH13-5" value="" style="sketch=0;pointerEvents=1;shadow=0;dashed=0;html=1;strokeColor=none;fillColor=#505050;labelPosition=center;verticalLabelPosition=bottom;verticalAlign=top;outlineConnect=0;align=center;shape=mxgraph.office.concepts.home;" parent="1" vertex="1">
          <mxGeometry x="70" y="135" width="40" height="30" as="geometry" />
        </mxCell>
        <mxCell id="rk1dpR8E0q6zi79prH13-6" value="" style="swimlane;startSize=0;" parent="1" vertex="1">
          <mxGeometry x="30" y="130" width="40" height="40" as="geometry" />
        </mxCell>
        <mxCell id="rk1dpR8E0q6zi79prH13-7" value="" style="swimlane;startSize=0;" parent="1" vertex="1">
          <mxGeometry x="70" y="130" width="390" height="40" as="geometry" />
        </mxCell>
        <mxCell id="rk1dpR8E0q6zi79prH13-8" value="&lt;font style=&quot;font-size: 24px;&quot;&gt;VOLUNTEERING EVENTS&lt;/font&gt;" style="text;html=1;align=center;verticalAlign=middle;resizable=0;points=[];autosize=1;strokeColor=none;fillColor=none;" parent="rk1dpR8E0q6zi79prH13-7" vertex="1">
          <mxGeometry x="80" width="320" height="40" as="geometry" />
        </mxCell>
        <mxCell id="rk1dpR8E0q6zi79prH13-9" value="&lt;font style=&quot;font-size: 24px;&quot; color=&quot;#ff0055&quot;&gt;&amp;gt;&lt;/font&gt;" style="text;html=1;align=center;verticalAlign=middle;resizable=0;points=[];autosize=1;strokeColor=none;fillColor=none;" parent="rk1dpR8E0q6zi79prH13-7" vertex="1">
          <mxGeometry x="40" width="40" height="40" as="geometry" />
        </mxCell>
        <mxCell id="rk1dpR8E0q6zi79prH13-10" value="" style="swimlane;startSize=0;" parent="1" vertex="1">
          <mxGeometry x="750" y="130" width="330" height="40" as="geometry">
            <mxRectangle x="750" y="130" width="50" height="40" as="alternateBounds" />
          </mxGeometry>
        </mxCell>
        <mxCell id="rk1dpR8E0q6zi79prH13-11" value="&lt;font style=&quot;font-size: 24px;&quot;&gt;ACCOUNT&lt;/font&gt;" style="text;html=1;align=center;verticalAlign=middle;resizable=0;points=[];autosize=1;strokeColor=none;fillColor=none;" parent="rk1dpR8E0q6zi79prH13-10" vertex="1">
          <mxGeometry x="8" width="140" height="40" as="geometry" />
        </mxCell>
        <mxCell id="rk1dpR8E0q6zi79prH13-12" value="" style="swimlane;startSize=0;" parent="1" vertex="1">
          <mxGeometry x="70" y="130" width="40" height="40" as="geometry" />
        </mxCell>
        <mxCell id="rk1dpR8E0q6zi79prH13-13" value="" style="swimlane;startSize=0;" parent="1" vertex="1">
          <mxGeometry x="460" y="130" width="290" height="40" as="geometry" />
        </mxCell>
        <mxCell id="rk1dpR8E0q6zi79prH13-14" value="&lt;span style=&quot;font-size: 24px;&quot;&gt;ORGANIZATIONS&lt;/span&gt;" style="text;html=1;align=center;verticalAlign=middle;resizable=0;points=[];autosize=1;strokeColor=none;fillColor=none;" parent="rk1dpR8E0q6zi79prH13-13" vertex="1">
          <mxGeometry x="33" width="220" height="40" as="geometry" />
        </mxCell>
      </root>
    </mxGraphModel>
  </diagram>
</mxfile>
